<svg xmlns="http://www.w3.org/2000/svg" viewBox="0 0 82.51 92.49"><defs><style>.cls-1{fill:#ff9ac2;}.cls-2{fill:#ff6ea7;}.cls-3{fill:#ff7eb1;}.cls-4{fill:#ff86b5;}.cls-5{fill:#ff6ba5;}.cls-6{fill:#ff89b7;}.cls-7{fill:#ff7baf;}.cls-8{fill:#ff77ac;}.cls-9{fill:#ff74aa;}.cls-10{fill:#ff83b3;}.cls-11{fill:#ff94be;}.cls-12{fill:#ff84b4;}.cls-13{fill:#ff8fbb;}.cls-14{fill:#ff8ab8;}.cls-15{fill:#ff71a9;}</style></defs><g id="Layer_2" data-name="Layer 2"><g id="Layer_1-2" data-name="Layer 1"><path class="cls-1" d="M2.3,37.8a37.1,37.1,0,0,1,4.5-9.73A40.66,40.66,0,0,1,29.5,10.23,4,4,0,0,0,31,9.3,36.81,36.81,0,0,1,49.3.15c2.43-.42,2.87,0,2.65,2.4s-.39,4.62-.59,7a9.32,9.32,0,0,0,2.48-1.26,29.47,29.47,0,0,1,7-3c1.79-.48,2.25-.07,1.82,1.7q-.95,3.84-2,7.65a1.4,1.4,0,0,0,.69,1.86,37,37,0,0,1,9.5,9.14,3.38,3.38,0,0,1,.79,1.42c-.46.45-.91.24-1.36,0-1-.6-1.53-.15-1.89.75-.17.41-.16.94-.8.92-4.3-6.54-10.44-10.65-17.63-13.42-1-.4-1.59-.26-1.85.88A4.83,4.83,0,0,1,47,18.5c.34-4.18.68-8.1,1-12,.14-1.91.08-2-1.72-1.34a33.38,33.38,0,0,0-12.8,8.12,3.31,3.31,0,0,1-1.47.91C21.51,17.09,14.09,23.73,9.1,33.26c-.78,1.49-1.44,3-2.16,4.56,0,0-.06.08-.1.08-1.47,0-3-.43-4.42.29C2.31,38.25,2.17,38,2.3,37.8Z"/><path class="cls-2" d="M19,80.6c1.82,1.16,3.45,2.63,5.7,3.55L23.54,82c.09-.78.71-1,1.3-1.2,1.84-.74,3.8-1.06,5.69-1.63a25.86,25.86,0,0,0,9,6.91c.24.66-.34.86-.68,1.19-1.14,1.1-2.56,1.88-3.54,3.18s-2.42.89-3.71,1.06a36.28,36.28,0,0,1-15.95-7.9C16.42,82.18,17.91,81.6,19,80.6Z"/><path class="cls-3" d="M37.65,69.85V61.91a17.54,17.54,0,0,0,.12-3.24c0-.45-.09-.94.42-1.2a1.16,1.16,0,0,1,1.38.19,3.44,3.44,0,0,0,4.81.18,2.06,2.06,0,0,1,1.69-.36,23,23,0,0,0,4.69.14c1.79,1.15,3.6,2.28,5.38,3.46a2.26,2.26,0,0,1,0,4c-1.09.72-2.23,1.38-3.34,2.06a.68.68,0,0,1-.27.07c-3.6-.26-7.21-.12-10.81,0A3.84,3.84,0,0,1,40,66.71c-1-.45-1.31-.24-1.42.82-.05.45,0,.91-.08,1.35S38.38,69.92,37.65,69.85Z"/><path class="cls-4" d="M81.49,48.51a7,7,0,0,0-1.36,4,4.63,4.63,0,0,1-1.41,3.19C77.2,57,77.1,58.8,76.78,60.54A4.6,4.6,0,0,1,74,59.16a2.16,2.16,0,0,1,.06-.81c.4-.87.23-1.31-.8-1.4a2.84,2.84,0,0,1-1.51-.87,23.37,23.37,0,0,0-6-3.69c-.25-1.35-.13-1.5,1.17-1.46h2.59a22.79,22.79,0,0,0-10.68-5.07,18.82,18.82,0,0,1,13.37,3c1.22.78,2.37,1.69,3.56,2.54.86.62,1.48.62,1.62-.64a10.4,10.4,0,0,1,.28-1.2C78.79,47.86,79.64,47.61,81.49,48.51Z"/><path class="cls-5" d="M31.61,91.47c1-.72,2.46-.46,3.25-1.54A16.59,16.59,0,0,1,38,87.13,10.4,10.4,0,0,1,39.54,86,29.43,29.43,0,0,0,50.33,88a31.64,31.64,0,0,0,9.93-1.88,11.41,11.41,0,0,1-2.95,1.81,30.55,30.55,0,0,1-2.8,1.41A36,36,0,0,1,32.25,91.7,3.77,3.77,0,0,1,31.61,91.47Z"/><path class="cls-6" d="M9.08,53.41c3.23-6.68,8.61-10.95,15.37-13.64a26,26,0,0,1,7.69-1.83c-7.72,3.32-13.19,9-17,16.3a.76.76,0,0,1-1,.12,5.33,5.33,0,0,0-4.58-.73A.5.5,0,0,1,9.08,53.41Z"/><path class="cls-7" d="M12.48,61.38a44,44,0,0,0-.55,10c.27,2.21.12,2.37-2.06,2.3-.5,0-1,0-1.5.06a1.57,1.57,0,0,1-1.76-1.18c-.17-.75-.7-1-1.25-1.32a27.9,27.9,0,0,1-2.75-6,4.41,4.41,0,0,1,.49-1.82,1.68,1.68,0,0,1,2.06-1.12c.58.14,1.17,0,1.76.13a1.82,1.82,0,0,0,2.19-1.14,2,2,0,0,1,.89-1C11.22,59.59,12.13,60,12.48,61.38Z"/><path class="cls-8" d="M37.65,69.85c.49-1.14.15-2.34.26-3.51s.61-1.47,1.5-.81c2,1.5,4.22,1.09,6.43.83a15.7,15.7,0,0,1,6.93.79c-3.82,2.47-7.61,5-11.47,7.38-1.95,1.22-3.67.2-3.69-2.09C37.6,71.58,37.64,70.71,37.65,69.85Z"/><path class="cls-9" d="M30.53,79.13a1.4,1.4,0,0,1-1.33,1.13A26.74,26.74,0,0,0,23.54,82a21.08,21.08,0,0,1-2.9-12.41c2,1.29,3.81.77,5.53-.6a28.46,28.46,0,0,0,3.49,9C29.92,78.39,30.39,78.63,30.53,79.13Z"/><path class="cls-10" d="M12.48,61.38c-1.35-1.27-2.24-1.08-2.79.68A1.22,1.22,0,0,1,8.35,63c-.72,0-1.43-.16-2.15-.23-1.2-.11-2.28,0-2.77,1.36a4.35,4.35,0,0,1-.82,1.08,13.27,13.27,0,0,1-1.36-4.65,3.64,3.64,0,0,1,.52-3.08c1.2-1.68,2.19-1.74,3.34,0l0,0c.23.54-.1,1-.29,1.41a1.92,1.92,0,0,0,.83,2.58.79.79,0,0,0,1.23-.8,4.9,4.9,0,0,1,.07-1.87,16.69,16.69,0,0,1,2.15-5.39,4.38,4.38,0,0,1,5.12.25,7,7,0,0,0,.91.58A51.76,51.76,0,0,0,12.48,61.38Z"/><path class="cls-11" d="M67.57,28.76a4.71,4.71,0,0,1,.34-1.68,1.65,1.65,0,0,1,2.8-.51,7.65,7.65,0,0,0,.91.56,5.82,5.82,0,0,1,.84,4.18,3.07,3.07,0,0,0,1.07,2.62,41.33,41.33,0,0,1,4.91,5.5.57.57,0,0,1-.48.8,3.25,3.25,0,0,0-2.4,1.55c-.15.24-.47.25-.74.24-2.19-2.35-4.14-4.91-6.46-7.15A1.74,1.74,0,0,1,68,33.48,17.42,17.42,0,0,0,67.57,28.76Z"/><path class="cls-7" d="M26.17,69a1.62,1.62,0,0,1-1.49,1.76,9.24,9.24,0,0,1-2.82.19c-.87-.06-1.34-.43-1.22-1.35a23.5,23.5,0,0,1,8.71-17.94c-.49,1.38-1.24,2.65-1.73,4A29.17,29.17,0,0,0,26.17,69Z"/><path class="cls-12" d="M50.76,57.62a4.52,4.52,0,0,1-4.26.55,2.36,2.36,0,0,0-2.29.57,3.59,3.59,0,0,1-4.63-.22c-.38-.32-.72-.83-1.29-.53s-.34.88-.38,1.36a6.35,6.35,0,0,1-.26,2.56c0-2.83-.07-5.66,0-8.48,0-2.28,2-3.24,3.93-1.94,2.38,1.57,4.71,3.23,7.07,4.84C49.31,56.79,50.05,57.19,50.76,57.62Z"/><path class="cls-13" d="M2.3,37.8s.11,0,.13,0c1.5-1.44,3-.95,4.51,0A47.88,47.88,0,0,0,4.66,48.94c-.06.85-.1,1.71-.15,2.57a36.78,36.78,0,0,1-3.87-.77c-.48-.13-.8-.42-.56-1A35.27,35.27,0,0,1,2.3,37.8Z"/><path class="cls-9" d="M5.36,71.23c.81,0,1.57,0,1.67,1.07a.82.82,0,0,0,.84.75c1.12,0,2.25,0,3.35,0,.95,0,.56-1,.71-1.66,0,2.4,1.67,3.81,3.07,5.35,1.25,1.37,2.67,2.59,4,3.88.2.51.45,1-.37,1.25-1.11.35-1.71,1.61-3,1.72A39.16,39.16,0,0,1,5.36,71.23Z"/><path class="cls-14" d="M74.82,42c.51-1.84,2-2.33,3.62-2.59A43,43,0,0,1,82,43.69c1,1.6.48,3.29-.47,4.82-.16.08-.34.27-.47.24-1.25-.27-2.24.45-3.31.84-.62-.71-1.25-1.41-1.86-2.14-1.41-1.69-1.27-2.18.85-2.86Z"/><path class="cls-7" d="M74,59.16c1.18-.06,2.25.1,2.77,1.38-.63,4.85-5,7.69-9.92,6.47a17.94,17.94,0,0,1-4.74-2C67,64.63,71.88,64.6,74,59.16Z"/><path class="cls-10" d="M.08,49.74c.67.81,1.63.64,2.48.65a1.88,1.88,0,0,1,1.95,1.12l.6,6c-1.91-1-3.75.17-3.73,2.38a3.94,3.94,0,0,1-.13.65A31.27,31.27,0,0,1,.08,49.74Z"/><path class="cls-11" d="M53.32,28.79c2.68.62,5.42.7,8,1.64a2.6,2.6,0,0,1,1.86,1.79,29.18,29.18,0,0,0,1.4,3.3,6.68,6.68,0,0,0-3.69-.75A5.54,5.54,0,0,1,57,32.83C55.73,31.53,54.7,30,53.32,28.79Z"/><path class="cls-10" d="M6.93,58.8a8.37,8.37,0,0,0,.47,2c.21.89-.06,1.45-1.14,1.22a4.17,4.17,0,0,1-2-.91c-1.08-1-1.09-1.59,0-2.53a2.11,2.11,0,0,0,.77-1.09l1,3.7Z"/><path class="cls-15" d="M67,50.93c-.9.08-.57,1.14-1.17,1.46a36.37,36.37,0,0,0-4.9-1.15C62.93,50.94,64.92,50.44,67,50.93Z"/></g></g></svg>
