<svg xmlns="http://www.w3.org/2000/svg" viewBox="0 0 88.04 88.43"><defs><style>.cls-1{fill:#ff6ba5;}</style></defs><g id="Layer_2" data-name="Layer 2"><g id="Layer_1-2" data-name="Layer 1"><path class="cls-1" d="M23.19,56.53a21.53,21.53,0,0,0-3,10,22.32,22.32,0,0,0,6.09,15.8,38.15,38.15,0,0,0,4.3,4.13,33,33,0,0,1-9.58-4C9.71,75.73,2.8,65.84.55,52.84a30.88,30.88,0,0,1,.66-14.45A2.85,2.85,0,0,1,3.14,39c2.32,1.59,4.74,3,7.07,4.61,2.57,1.75,5.47,2.84,8.2,4.28a1.65,1.65,0,0,1,.83.7,4.78,4.78,0,0,0,2.11,2.13,2.33,2.33,0,0,1,1.18,1.92C22.68,53.92,23,55.21,23.19,56.53Z"/><path class="cls-1" d="M23.19,56.53c-1.05-.94-1.13-2.28-1.31-3.53a2.22,2.22,0,0,0-1.15-1.9,3.56,3.56,0,0,1-2-2c-.15-.42-.56-.59-.95-.75-1.51-.66-3-1.44-4.51-2a24,24,0,0,1-4.32-2.68C6.54,42,4,40.57,1.67,38.9a3.21,3.21,0,0,1-.46-.51A34.31,34.31,0,0,1,8.17,24c.75-.49,1.25-.26,1.71.47A26.62,26.62,0,0,0,13.55,29a32.77,32.77,0,0,0,5.15,4.12A46.48,46.48,0,0,1,25,38a6.9,6.9,0,0,0,1.49,1A6.42,6.42,0,0,1,29,41.13a5.2,5.2,0,0,0,1.87,1.41,2.56,2.56,0,0,1,1.51,2.3,1.17,1.17,0,0,0,.58,1,.82.82,0,0,1,.29,1.29,31.38,31.38,0,0,0-8.08,6.46A29.79,29.79,0,0,0,23.19,56.53Z"/><path class="cls-1" d="M48.1,17.8a10.41,10.41,0,0,1,3.4,5.88c.33,1.79,1.65,2.85,2.78,4,2.24,2.36,2.29,2.54.38,5.09A4.67,4.67,0,0,0,54,34.17a15.44,15.44,0,0,1-6.48,8.51,3.51,3.51,0,0,1-.64.24c-.32-.1-.56-.37-.87-.43-1.79-.32-2.95-1.21-3.08-3.16a1.33,1.33,0,0,0-.88-1,7.54,7.54,0,0,1-3.61-3.14c-1.33-2.15-3.28-3.72-4.89-5.61a1.48,1.48,0,0,1-.19-.35,3.49,3.49,0,0,1-.34-.73C32,27.2,31.77,25.6,31.2,24.13a10.63,10.63,0,0,1-.84-4.55,10,10,0,0,1,.51-2.71A4.59,4.59,0,0,0,33,15.06,1.18,1.18,0,0,1,35,15,3.4,3.4,0,0,0,37.62,16a2.51,2.51,0,0,1,1.21.22,3.6,3.6,0,0,0,3.09.11,1.94,1.94,0,0,1,2.28.41C45.28,17.91,46.74,17.67,48.1,17.8Z"/><path class="cls-1" d="M33.82,29v.25a2.41,2.41,0,0,0,.73,1.43c.43.46,1,.86.68,1.58a1.64,1.64,0,0,1-1.77,1.11c-2.18-.5-4.38.92-6.54-.2-.62-.32-1.37,0-2,.29a2,2,0,0,1-2.37-.5c-1-1-2-1.73-2-3.38,0-1.15-1.16-1.31-2.14-1.18a11.2,11.2,0,0,1-4-.13c-.81-.19-1.38-.53-1.5-1.39a1.76,1.76,0,0,0-1.26-1.51.79.79,0,0,1-.47-.29,4,4,0,0,0-2.51-1.71c5.86-7,13.1-11.6,22.4-12.44a1,1,0,0,1,.35.87,4.17,4.17,0,0,0,.8,3.33c.58.87-.2,1.4-.85,1.86-.09,1.25-.2,2.48-.27,3.73a3.77,3.77,0,0,0,.93,3,1.19,1.19,0,0,1,.39,1c-.29,1.78.76,2.82,2,3.76a8.71,8.71,0,0,1-3.6.68,5.82,5.82,0,0,0-3.42.91c-.34.23-.82.48-.67.95s.7.32,1.09.28a7.39,7.39,0,0,0,3.76-1.62C32.18,29.13,32.88,28.56,33.82,29Z"/><path class="cls-1" d="M8.61,23.37c1.68-.93,1.7-.94,2.63.65a1.52,1.52,0,0,0,1.06.79,1.39,1.39,0,0,1,1.27,1.67c-.08.7.36,1,1,1.11A7.55,7.55,0,0,0,18,27.7a3.85,3.85,0,0,1,2.32.21,1.49,1.49,0,0,1,1.09,1.8,2.87,2.87,0,0,0,3.76,2.9c.39-.13.89-.38,1.19-.25,2.06.94,4.16,0,6.22.24a5.88,5.88,0,0,0,1.11,0,1,1,0,0,0,1-.67c.11-.45-.22-.7-.55-.88-.92-.49-.81-1.12-.27-1.82,1.22,1.2,2.73,2.05,3.77,3.49,1.38,1.91,2.51,4.1,5,5a2,2,0,0,1,1.29,2c0,1.1.61,1.62,1.68,1.82.7.13,1.74.1,1.38,1.37a6.76,6.76,0,0,1-3,1,39.77,39.77,0,0,0-10.66,3.21c-.18-.5-.63-.64-1.06-.81s-1-.61-.72-1.28c.37-1-.23-1.42-.89-1.93a85,85,0,0,0-7-5.46c-2.55-1.58-4.37-4.15-7.38-5.07a3.24,3.24,0,0,1-2.28-2.27,1.49,1.49,0,0,0-.65-.87c-2.16-1-2.93-3.1-4.1-4.89a1.29,1.29,0,0,0-1-.65Z"/><path class="cls-1" d="M79.2,53.45c-.07-.36.21-.57.37-.83-.06-1.07.88-1.89.76-3,.4-.23.8-.45,1.19-.69,1.75-1.08,2-2,.8-3.68a7.9,7.9,0,0,1-.7-1.19c-.48-.95-.25-1.57.9-1.49s1.23-.47.88-1.42a39.54,39.54,0,0,0-5.19-10,12.45,12.45,0,0,0-4.44-3.7c-.28,2-.27,2-2.27,1.49a4.44,4.44,0,0,1-2.33-1.18,10.66,10.66,0,0,0-6.72-3.43c4.65-1.9,9-2.45,13.76-1-1.8-2.75-3.74-4.68-6.76-5.24-.49-.09-1-.21-1.48-.31a18,18,0,0,1,.29-3.59c.14-.59.27-1.18.92-1.44a29,29,0,0,1,9.33,6.88,9.13,9.13,0,0,1,2.25,6.53,3.19,3.19,0,0,0,.74,2.16c3.08,3.88,4.85,8.39,6.28,13.07a5.43,5.43,0,0,1-1.48,5.59A4.61,4.61,0,0,0,85,49.14a2.23,2.23,0,0,1-1,1.47c-1.62.87-1.87,2.38-2,4A2.27,2.27,0,0,1,79.2,53.45Z"/><path class="cls-1" d="M42.5,79.57C44,83.49,46.85,86,50.88,87.89a48,48,0,0,1-9.11.54c-3.44.09-5.4-2.18-7.35-4.37a17.71,17.71,0,0,1-2.2-20.72,7.5,7.5,0,0,1,.48-.67,1.33,1.33,0,0,1,1.17.16,4.19,4.19,0,0,1,1.4,4c-.39,1.33.87,1.4,1.45,2a18.26,18.26,0,0,0,4.37,6.86,4.05,4.05,0,0,1,.59,2.67C41.55,79,41.93,79.33,42.5,79.57Z"/><path class="cls-1" d="M31.31,17c.29-.68.66-1.46,0-2-1.57-1.29-.65-2.66-.28-4,2,.22,3.43-.81,4.81-2.17A112.62,112.62,0,0,1,45.12.6c1.16-.91,1.24-.85,1.49.67a60.12,60.12,0,0,1,.28,8.05c0,1.71.1,3.44,0,5.15A3.75,3.75,0,0,0,48.1,17.8c-1.71,1.05-2.35,1.08-4-.23a2.19,2.19,0,0,0-2.4-.41,3.19,3.19,0,0,1-3-.17,3.3,3.3,0,0,0-1.47-.27c-1-.1-2-.18-2.66-1.18a.63.63,0,0,0-.71-.33.49.49,0,0,0-.38.63c.38,1.12-.12,1.22-1.05,1A3.27,3.27,0,0,0,31.31,17Z"/><path class="cls-1" d="M42.5,79.57c-1,.24-1.32-.44-1.39-1.21s0-1.83,0-2.74c1.37.47,1.59.32,1.26-1.09a15.43,15.43,0,0,1,1.37-11.62c.54-.35,1.1-.51,1.62,0,1.43,1.43,3,2.74,4.35,4.22a2.57,2.57,0,0,1,.68,1.94c-.13,2-.1,2.07,1.85,3l.29.47a5.19,5.19,0,0,0,2.08,3.1c1.75,1.09,1.84,2.92,2.08,4.6a9,9,0,0,1-.3,3,24.54,24.54,0,0,1-11.78-4c-.31-.2-.61-.42-.93-.6s-.85-.58-1.28-.3S42.58,79.15,42.5,79.57Z"/><path class="cls-1" d="M69.18,12.85a34.52,34.52,0,0,0-.42,3.68A1.32,1.32,0,0,1,68,17.88a27.28,27.28,0,0,0-12,2.17,14.63,14.63,0,0,1,8.2-5.83A23.94,23.94,0,0,0,57,11.74c-3.65-.81-5.69-3.23-6.88-6.58A4.17,4.17,0,0,1,50,2.94a34.48,34.48,0,0,1,5,3.79,8.08,8.08,0,0,0,4,2.26A43.17,43.17,0,0,1,69.18,12.85Z"/><path class="cls-1" d="M79.2,53.45c1.09,0,1.89.68,2.78,1.13a9.18,9.18,0,0,1-7.56,7.48c-.66.1-1,0-1.37-.7-1.65-3.75-4.79-5.32-8.68-5.67a16.4,16.4,0,0,0-5.48.63,1.58,1.58,0,0,1,1-2.31,5.4,5.4,0,0,1,.69-.08c.49-.06,1.1.22,1.46-.18s-.28-.89-.28-1.39a1,1,0,0,1,.18-.51,18.55,18.55,0,0,1,10,2.55C74.66,56,76.89,55.65,79.2,53.45Z"/><path class="cls-1" d="M58.57,66.05c6.82,5.12,14.08,4.94,21.76,2.54A29.86,29.86,0,0,1,73.94,76c-.59.51-1.35.31-2,.26-5.5-.44-9.83-2.77-12.5-7.77a8.89,8.89,0,0,1-.49-1.14C58.81,67,58.74,66.65,58.57,66.05Z"/><path class="cls-1" d="M62,51.85a7.3,7.3,0,0,1,1.33,1.93c.13.35.37.7.1,1s-.73.24-1.14.12c-2.17-.64-2.47-.51-3.35,1.38a16.06,16.06,0,0,0-6.44,5,.61.61,0,0,1-.26.08c-1.46-.1-3.87-2.74-3.9-4.26A19.79,19.79,0,0,1,62,51.85Z"/><path class="cls-1" d="M56.37,83.24c-.91-.33-1-.9-.64-1.75a5,5,0,0,0-1.42-5.08,4.36,4.36,0,0,1-1.8-3.84c4.14,5.06,9.85,6.67,16.35,7.34a58.28,58.28,0,0,1-5.47,3.29c-1.29.72-2.49,1.17-4,.45A10,10,0,0,0,56.37,83.24Z"/><path class="cls-1" d="M48.29,57.09a54.69,54.69,0,0,0,4.16,4.18A11.91,11.91,0,0,0,50.82,68a14.58,14.58,0,0,0,1.4,4.11,3.62,3.62,0,0,1-2.85-.75c-.67-.39-.37-1,0-1.44a1.63,1.63,0,0,0-.29-2.45c-1.41-1.33-2.81-2.68-4.22-4a2.21,2.21,0,0,0-1.11-.53A17.29,17.29,0,0,1,48.29,57.09Z"/><path class="cls-1" d="M65,40.31a20.07,20.07,0,0,1,12.62,4.07,1.66,1.66,0,0,1,.47,2.44c-1.65,2.48-2.9,3.54-5.47,2a21.79,21.79,0,0,0-9.48-2.9c3.89-1,7.74-.44,11.67.47C73.77,44.32,70.13,42.16,65,40.31Z"/><path class="cls-1" d="M28,9.41a28.46,28.46,0,0,0-9.34,3.18,68.07,68.07,0,0,1,2-9.08c.23-.86.67-.39,1-.1C23.69,5.33,25.73,7.26,28,9.41Z"/><path class="cls-1" d="M36.72,68.76a4,4,0,0,1-2-.31c-.57-.26-1-.81-.54-1.28,1.35-1.32.43-2.29-.33-3.3a12.75,12.75,0,0,0-1.13-1.2,17.11,17.11,0,0,1,5.8-6.1,22.76,22.76,0,0,0-2.21,6.94,8.58,8.58,0,0,0,0,2.77Z"/><path class="cls-1" d="M69.94,31.73C67.2,33.17,64.17,33.55,61,34.8c1.18-2,2.11-3.84,4-4.68S68.2,31.24,69.94,31.73Z"/><path class="cls-1" d="M80.33,49.64c1.71,1.11,1.71,1.24,0,2.2a2.17,2.17,0,0,0-.73.78c.06-.77-.44-1-1.08-1.15-.34-.08-.81-.24-.8-.62s.49-.51.83-.63C79.12,50,79.73,49.83,80.33,49.64Z"/><path class="cls-1" d="M36.26,66.28a3.84,3.84,0,0,1,0-2.77Z"/></g></g></svg>