<svg xmlns="http://www.w3.org/2000/svg" viewBox="0 0 105.78 74.35"><defs><style>.cls-1{fill:#ff9cc3;}.cls-2{fill:#ffa2c6;}.cls-3{fill:#ff84b4;}.cls-4{fill:#ff80b2;}.cls-5{fill:#ff96bf;}.cls-6{fill:#ff6ba5;}.cls-7{fill:#ff83b3;}.cls-8{fill:#ff7aae;}.cls-9{fill:#ff71a9;}.cls-10{fill:#ff8cb9;}.cls-11{fill:#ff91bc;}</style></defs><g id="Layer_2" data-name="Layer 2"><g id="Layer_1-2" data-name="Layer 1"><path class="cls-1" d="M90.05,54.16c0-2.17-.12-4.33-.08-6.5,0-1.17-.39-1.64-1.58-1.62-3.48,0-7,.07-10.43,0-1.43,0-1.51,1.12-2,1.91-.91.28-1.34-.25-1.64-1,.65-1.23.21-2.24-.55-3.26s-1.52-2.27-2.28-3.4A1.83,1.83,0,0,1,71,39.06c.46-3.49-1.57-5.75-3.83-7.92.17-1.65.49-1.91,2-1.65h0a52,52,0,0,0,6.95.15c3.34,0,6.69,0,10,0,2.09.16,4.34.08,5.76,1.94,1.59,2.07,4.14,2.5,6,3.88s3.87,2,5.31,3.62c1.7,1.91,2.06,4.4,2.26,6.87a19.38,19.38,0,0,0,.17,3.57q0,6.49,0,13c0,.43.33,1.15-.44,1.25s-1-.46-1.18-1a9.34,9.34,0,0,1-.28-4.39c.26-2.53-.47-3.37-3-3.35a9.39,9.39,0,0,0-1.19.09c-3,.35-3.12.28-4.13-2.43-.32-.88-.64-1.8-1.8-1.74a2.52,2.52,0,0,0-2.32,1.74C91.06,53.3,91.15,54.24,90.05,54.16Z"/><path class="cls-2" d="M105.38,49.33c-.49-2-.06-4.19-.93-6.18-1-2.19-1.69-4.53-4.63-4.82-.36,0-.9-.29-1-.56-.74-2.18-2.89-2.12-4.49-2.88A5.4,5.4,0,0,1,92,33a6.82,6.82,0,0,0-5.38-3.1c.92-.72,2.07.1,3-.47A8.59,8.59,0,0,0,90,25.94c0-5.46,0-10.92,0-16.38,0-5,3-8.75,7.49-9.24,2.45-.29,4.9,0,7.35-.13.69,0,.9.33.87,1,0,.28,0,.57,0,.85q0,22.86,0,45.72C105.63,48.25,105.87,48.86,105.38,49.33Z"/><path class="cls-3" d="M.2.38C1.77-.37,3.31.23,4.8.62a23.48,23.48,0,0,1,9,4.77c5.35,4.34,10.79,8.56,16,13.05,3,2.61,6.35,4.88,9.19,7.72,1,1,2.06,1.85,3.45.58,1.56.12,2.33.81,2.13,1.9s-1.34,1.62-2.66,1.3a3.36,3.36,0,0,0-1-.09,1.28,1.28,0,0,1-1.28-.29c-1.66-2.22-3.88-1.36-6-1.07a13.1,13.1,0,0,1-3.54.17,3.14,3.14,0,0,1-2.83-1.82,2.4,2.4,0,0,0-2.74-1.25,8.29,8.29,0,0,0-2.74.92,4.91,4.91,0,0,1-2.09.68,16.25,16.25,0,0,0-4.68.59c-2.38.69-4-.67-4.06-3.05a1.28,1.28,0,0,0-.86-1.31,14.71,14.71,0,0,1-4.49-3.34A6.5,6.5,0,0,0,4.32,19c-2.72-1.67-2.75-1.72-2.79-4.72C1.15,13.85.19,15.34.1,13.89.16,9.38,0,4.88.2.38Z"/><path class="cls-4" d="M.35,14.41c.54-.74-.14-2.51,1.48-2.22s.7,1.67.58,2.63c-.15,1.16,0,2.31,1.13,2.8a13.46,13.46,0,0,1,3.62,2.8,8.06,8.06,0,0,0,3.77,2.25c1.15.23,1.6.91,1.07,2-.66,1.35.08,2,1.18,2.25s2.34.74,3.38-.34a1,1,0,0,1,.77-.29c2.19.55,4-.56,5.89-1.27,2.44-.89,3.67-.37,5.08,1.86.88,1.39,2.4,1.12,3.57,1a30.33,30.33,0,0,0,4.72-.68,2.18,2.18,0,0,1,2.78.95,2,2,0,0,0,1.34,1c1.32.87,2.56,1.9,4.21,2.1a.62.62,0,0,1,.31.14,15.36,15.36,0,0,1,4.87,5.71c-2.71,3.23-5.46,6.43-8.11,9.71-.7.87-1.09,1-2,.22q-8.43-7.1-17-14.09c-2-1.63-4.1-3.1-6.11-4.7-.94-.73-1.12-.35-1.15.59a51.17,51.17,0,0,1-.08,5.81c-2,1.46-5.81.64-6.93-1.59a2.85,2.85,0,0,0-2.36-1.71c-1-.12-2-.56-3-.75a2.81,2.81,0,0,1-2.13-2.19c-.1.18,0-.16,0-.1-.2.56-.34,1.15-1.14.8-.11,0-.08-.31-.08-.49,0-4.2,0-8.39,0-12.58C.11,15.48-.12,14.88.35,14.41Z"/><path class="cls-5" d="M105.38,49.33q0-15.66.06-31.32c0-5.25,0-10.5,0-15.75,0-1.39-.45-2-1.88-1.91-2,.07-4.1,0-6.16,0,2.48-.58,5-.17,7.49-.27,1.13,0,.81.89.82,1.5,0,5.82,0,11.64,0,17.46q0,22.16,0,44.32a15.8,15.8,0,0,1-.43,4.23,9,9,0,0,1-8.35,6.72c-1.93.12-3.88,0-5.81.06-.91,0-1.19-.33-1.18-1.2,0-6.33.07-12.66.1-19a6.11,6.11,0,0,0,.32-1,3.86,3.86,0,0,1,4-3.46c.9,0,1.29.42,1.52,1.28.91,3.34.93,3.33,4.28,3.16.51,0,1,0,1.54,0,2.51.11,3.37,1.11,3,3.63-.29,1.82-.5,3.61.68,5.33Z"/><path class="cls-6" d="M.35,14.41l0,14.68c.78.53.74,1.37.76,2.16.06,1.82.08,3.65,0,5.48a55.85,55.85,0,0,0,.24,7.32,28.26,28.26,0,0,0-.24,4.6c0,2.09.21,4.21-.62,5.8a.68.68,0,0,1,.43-.87c.55-.21.93.15,1.39.4C4.53,55.2,6.36,57,8.71,58.05a6.36,6.36,0,0,1,2,1.54,5.27,5.27,0,0,0,3.59,2.08c.91.07,1.1.84,1.18,1.63.07.61-.2,1.25.19,1.82,0,2.68,0,5.36.08,8,0,.89-.32,1.19-1.2,1.18-4.39,0-8.79-.07-13.18,0C.15,74.34,0,73.71,0,72.74c0-5.94,0-11.87,0-17.8Q0,28.5,0,2.05A3.17,3.17,0,0,1,.2.38Z"/><path class="cls-7" d="M50.1,37.09a17.37,17.37,0,0,1-2.53-2.2c-1.2-1.53-2.32-2.95-4.47-3.29-1.18-.18-1.88-1.35-2.39-2.46.22,0,.45,0,.67,0,.89.12,2,.43,2.41-.57s-.77-1.34-1.38-1.87a15.58,15.58,0,0,1,5.79-3.11,5.22,5.22,0,0,0,2.6-1.78c2.46-3.05,5-6,7.5-9.06,1-1.18,1.44-1.19,2.25.15A17.2,17.2,0,0,1,63,22.19c.32,1-.26,1.37-1.11,1.52-.33-.16-.75-1.51-1,0-.45,3.31-2.45,5.67-4.69,7.85C54.3,33.46,52.17,35.24,50.1,37.09Z"/><path class="cls-8" d="M.32,44.49V29.09c.62-1.13,0-2.46.55-3.8,1,.66.87,1.65,1.09,2.45a2.53,2.53,0,0,0,2.27,2.17c1,.13,2,.45,3,.65a2.43,2.43,0,0,1,2,1.39c.77,2.67,3,2.27,5,2.64a9.49,9.49,0,0,0,1.51,0c.17,5.48.16,11,0,16.44-1.43.28-2.5-.23-2.76-1.66-.33-1.81-1.46-2.29-3-2.3a4,4,0,0,1-3.44-1.78c-1.06-1.49-3-1.48-4.53-2.11-.38-.15-.51.34-.66.64S.94,44.74.32,44.49Z"/><path class="cls-9" d="M.32,44.49A5.63,5.63,0,0,0,.63,42c0-.33,0-.76.42-.82.19,0,.5.23.65.44a3.73,3.73,0,0,0,2,1.29c1.6.52,3.29.78,4.13,2.64.36.8,1.46.71,2.32.75,2.66.14,2.87.29,3.58,2.83.3,1.07,1.26,1.4,2,2,.16,4.69.14,9.37,0,14.05a6.67,6.67,0,0,1-.35-1.29,1.34,1.34,0,0,0-1.54-1.43,3.74,3.74,0,0,1-3.27-1.79,5.22,5.22,0,0,0-3.05-2,1.67,1.67,0,0,1-1-.52c-1.11-2-3.73-1.87-5-3.67-.45-.64-.78-.07-.82.44a5.24,5.24,0,0,1-.33,2Z"/><path class="cls-7" d="M65.73,56.94a5.91,5.91,0,0,0-2.05,5c0,3.66,0,7.31,0,11,0,1.14-.36,1.49-1.46,1.44-1.54-.08-3.08-.06-4.62,0-.82,0-1.29-.19-1.35-1.1-.42-6.16.75-11.92,4.34-17A5,5,0,0,1,64,53.85a2.59,2.59,0,0,0,.81.16C66.68,54.41,67,55.5,65.73,56.94Z"/><path class="cls-10" d="M65.73,56.94c.62-1.69-.54-2.39-1.71-3.09a11.76,11.76,0,0,1,3.88-.18C70,53.73,70.84,53,71.66,51A26.46,26.46,0,0,1,74.27,47a1.51,1.51,0,0,1,1.64,1c-.91,1.73-2.12,3.25-2.64,5.24a4.26,4.26,0,0,1-4.21,3.14A9.76,9.76,0,0,0,65.73,56.94Z"/><path class="cls-11" d="M61.93,23.71,63,22.19a3.22,3.22,0,0,1,1.66,1.65,13.83,13.83,0,0,0,4.44,5.65c-1,.21-1.25,1.22-2,1.65a.59.59,0,0,1-.16-.06c-2.35-1.28-4.26-2.86-4.36-5.84A4.77,4.77,0,0,0,61.93,23.71Z"/><path class="cls-11" d="M89.67,29.47c-.93.67-2,.25-3,.47l-15.18-.1a4,4,0,0,1-2.32-.34C76,29.62,82.83,29.75,89.67,29.47Z"/></g></g></svg>
